<svg width="213" height="36" viewBox="0 0 213 36" fill="none" xmlns="http://www.w3.org/2000/svg">
<rect width="213" height="10.1791" rx="5.08957" fill="white"/>
<rect width="106.5" height="10.1791" rx="5.08957" fill="#30ADA3"/>
<path d="M63.8525 30.18C63.1425 30.18 62.5225 30.05 61.9925 29.79C61.4625 29.53 61.0425 29.175 60.7325 28.725C60.4325 28.275 60.2425 27.765 60.1625 27.195H61.3925C61.5125 27.765 61.7875 28.225 62.2175 28.575C62.6475 28.925 63.1975 29.1 63.8675 29.1C64.3675 29.1 64.7925 28.985 65.1425 28.755C65.5025 28.515 65.7775 28.2 65.9675 27.81C66.1675 27.41 66.2675 26.965 66.2675 26.475C66.2675 25.955 66.1675 25.505 65.9675 25.125C65.7775 24.735 65.5025 24.43 65.1425 24.21C64.7925 23.99 64.3875 23.88 63.9275 23.88C63.3475 23.88 62.8525 24.005 62.4425 24.255C62.0425 24.505 61.7475 24.83 61.5575 25.23H60.3425L61.2275 19.5H66.7625V20.595H62.2025L61.6025 23.805C61.8525 23.525 62.1875 23.29 62.6075 23.1C63.0275 22.91 63.5125 22.815 64.0625 22.815C64.5725 22.815 65.0375 22.91 65.4575 23.1C65.8775 23.28 66.2375 23.535 66.5375 23.865C66.8375 24.195 67.0675 24.58 67.2275 25.02C67.3975 25.46 67.4825 25.94 67.4825 26.46C67.4825 26.96 67.4025 27.435 67.2425 27.885C67.0825 28.335 66.8425 28.735 66.5225 29.085C66.2125 29.425 65.8325 29.695 65.3825 29.895C64.9425 30.085 64.4325 30.18 63.8525 30.18ZM73.5024 30.18C72.5824 30.18 71.7924 29.955 71.1324 29.505C70.4724 29.045 69.9624 28.41 69.6024 27.6C69.2424 26.78 69.0624 25.83 69.0624 24.75C69.0624 23.67 69.2424 22.725 69.6024 21.915C69.9624 21.095 70.4724 20.46 71.1324 20.01C71.7924 19.55 72.5824 19.32 73.5024 19.32C74.4224 19.32 75.2074 19.55 75.8574 20.01C76.5174 20.46 77.0224 21.095 77.3724 21.915C77.7324 22.725 77.9124 23.67 77.9124 24.75C77.9124 25.83 77.7324 26.78 77.3724 27.6C77.0224 28.41 76.5174 29.045 75.8574 29.505C75.2074 29.955 74.4224 30.18 73.5024 30.18ZM73.5024 29.07C74.1024 29.07 74.6374 28.9 75.1074 28.56C75.5774 28.21 75.9474 27.715 76.2174 27.075C76.4874 26.425 76.6224 25.65 76.6224 24.75C76.6224 23.85 76.4874 23.08 76.2174 22.44C75.9474 21.79 75.5774 21.295 75.1074 20.955C74.6374 20.615 74.1024 20.445 73.5024 20.445C72.8924 20.445 72.3474 20.615 71.8674 20.955C71.3974 21.295 71.0274 21.79 70.7574 22.44C70.4874 23.08 70.3524 23.85 70.3524 24.75C70.3524 25.65 70.4874 26.425 70.7574 27.075C71.0274 27.715 71.3974 28.21 71.8674 28.56C72.3474 28.9 72.8924 29.07 73.5024 29.07ZM80.786 30L86.891 19.5H88.151L82.046 30H80.786ZM87.401 30.18C86.951 30.18 86.546 30.08 86.186 29.88C85.826 29.67 85.536 29.375 85.316 28.995C85.106 28.615 85.001 28.17 85.001 27.66C85.001 27.14 85.106 26.695 85.316 26.325C85.536 25.945 85.826 25.655 86.186 25.455C86.546 25.245 86.951 25.14 87.401 25.14C87.861 25.14 88.266 25.245 88.616 25.455C88.976 25.655 89.261 25.945 89.471 26.325C89.681 26.695 89.786 27.14 89.786 27.66C89.786 28.17 89.681 28.615 89.471 28.995C89.261 29.375 88.976 29.67 88.616 29.88C88.256 30.08 87.851 30.18 87.401 30.18ZM87.386 29.205C87.626 29.205 87.846 29.15 88.046 29.04C88.246 28.92 88.406 28.745 88.526 28.515C88.656 28.285 88.721 28 88.721 27.66C88.721 27.31 88.661 27.02 88.541 26.79C88.421 26.56 88.261 26.39 88.061 26.28C87.861 26.16 87.641 26.1 87.401 26.1C87.171 26.1 86.951 26.16 86.741 26.28C86.541 26.39 86.376 26.56 86.246 26.79C86.126 27.02 86.066 27.31 86.066 27.66C86.066 28 86.126 28.285 86.246 28.515C86.376 28.745 86.541 28.92 86.741 29.04C86.941 29.15 87.156 29.205 87.386 29.205ZM81.641 24.375C81.191 24.375 80.786 24.275 80.426 24.075C80.066 23.865 79.776 23.57 79.556 23.19C79.346 22.81 79.241 22.365 79.241 21.855C79.241 21.335 79.346 20.89 79.556 20.52C79.776 20.14 80.066 19.85 80.426 19.65C80.796 19.44 81.206 19.335 81.656 19.335C82.106 19.335 82.511 19.44 82.871 19.65C83.231 19.85 83.516 20.14 83.726 20.52C83.936 20.89 84.041 21.335 84.041 21.855C84.041 22.365 83.936 22.81 83.726 23.19C83.516 23.57 83.226 23.865 82.856 24.075C82.496 24.275 82.091 24.375 81.641 24.375ZM81.641 23.4C81.881 23.4 82.101 23.345 82.301 23.235C82.501 23.115 82.661 22.94 82.781 22.71C82.901 22.48 82.961 22.195 82.961 21.855C82.961 21.505 82.901 21.215 82.781 20.985C82.661 20.745 82.501 20.57 82.301 20.46C82.101 20.34 81.886 20.28 81.656 20.28C81.426 20.28 81.206 20.34 80.996 20.46C80.786 20.57 80.616 20.745 80.486 20.985C80.366 21.215 80.306 21.505 80.306 21.855C80.306 22.195 80.366 22.48 80.486 22.71C80.616 22.94 80.781 23.115 80.981 23.235C81.191 23.345 81.411 23.4 81.641 23.4ZM98.828 30.18C98.118 30.18 97.478 30.015 96.908 29.685C96.348 29.355 95.903 28.895 95.573 28.305C95.253 27.705 95.093 27.015 95.093 26.235C95.093 25.435 95.253 24.74 95.573 24.15C95.903 23.56 96.348 23.1 96.908 22.77C97.478 22.44 98.118 22.275 98.828 22.275C99.728 22.275 100.478 22.51 101.078 22.98C101.678 23.44 102.058 24.06 102.218 24.84H100.928C100.828 24.37 100.583 24.005 100.193 23.745C99.803 23.485 99.343 23.355 98.813 23.355C98.383 23.355 97.983 23.465 97.613 23.685C97.253 23.895 96.958 24.215 96.728 24.645C96.498 25.065 96.383 25.595 96.383 26.235C96.383 26.705 96.448 27.12 96.578 27.48C96.718 27.84 96.898 28.145 97.118 28.395C97.338 28.635 97.593 28.815 97.883 28.935C98.183 29.055 98.493 29.115 98.813 29.115C99.173 29.115 99.498 29.06 99.788 28.95C100.078 28.83 100.323 28.66 100.523 28.44C100.723 28.21 100.858 27.935 100.928 27.615H102.218C102.058 28.375 101.673 28.995 101.063 29.475C100.463 29.945 99.718 30.18 98.828 30.18ZM107.382 30.18C106.682 30.18 106.052 30.02 105.492 29.7C104.932 29.37 104.487 28.91 104.157 28.32C103.837 27.72 103.677 27.025 103.677 26.235C103.677 25.425 103.842 24.725 104.172 24.135C104.502 23.545 104.947 23.09 105.507 22.77C106.077 22.44 106.712 22.275 107.412 22.275C108.122 22.275 108.757 22.44 109.317 22.77C109.877 23.09 110.317 23.545 110.637 24.135C110.957 24.725 111.117 25.425 111.117 26.235C111.117 27.035 110.952 27.73 110.622 28.32C110.302 28.91 109.857 29.37 109.287 29.7C108.727 30.02 108.092 30.18 107.382 30.18ZM107.382 29.1C107.822 29.1 108.227 28.995 108.597 28.785C108.967 28.565 109.262 28.245 109.482 27.825C109.712 27.395 109.827 26.865 109.827 26.235C109.827 25.585 109.717 25.05 109.497 24.63C109.277 24.21 108.982 23.895 108.612 23.685C108.242 23.465 107.842 23.355 107.412 23.355C106.992 23.355 106.592 23.465 106.212 23.685C105.842 23.895 105.542 24.215 105.312 24.645C105.082 25.065 104.967 25.595 104.967 26.235C104.967 26.865 105.082 27.395 105.312 27.825C105.542 28.245 105.837 28.565 106.197 28.785C106.567 28.995 106.962 29.1 107.382 29.1ZM112.884 30V22.455H114.024L114.114 23.535C114.354 23.135 114.674 22.825 115.074 22.605C115.474 22.385 115.919 22.275 116.409 22.275C116.799 22.275 117.149 22.33 117.459 22.44C117.779 22.54 118.059 22.7 118.299 22.92C118.549 23.13 118.749 23.4 118.899 23.73C119.159 23.27 119.514 22.915 119.964 22.665C120.424 22.405 120.909 22.275 121.419 22.275C122.009 22.275 122.519 22.395 122.949 22.635C123.389 22.865 123.724 23.22 123.954 23.7C124.194 24.17 124.314 24.77 124.314 25.5V30H123.069V25.635C123.069 24.875 122.914 24.305 122.604 23.925C122.294 23.545 121.854 23.355 121.284 23.355C120.894 23.355 120.544 23.46 120.234 23.67C119.924 23.87 119.679 24.165 119.499 24.555C119.319 24.945 119.229 25.425 119.229 25.995V30H117.969V25.635C117.969 24.875 117.814 24.305 117.504 23.925C117.194 23.545 116.759 23.355 116.199 23.355C115.819 23.355 115.469 23.46 115.149 23.67C114.839 23.87 114.594 24.165 114.414 24.555C114.234 24.945 114.144 25.425 114.144 25.995V30H112.884ZM126.243 33.3V22.455H127.383L127.503 23.685C127.663 23.445 127.868 23.22 128.118 23.01C128.368 22.79 128.668 22.615 129.018 22.485C129.368 22.345 129.773 22.275 130.233 22.275C130.963 22.275 131.598 22.45 132.138 22.8C132.688 23.14 133.113 23.61 133.413 24.21C133.723 24.8 133.878 25.48 133.878 26.25C133.878 27.01 133.723 27.685 133.413 28.275C133.113 28.865 132.688 29.33 132.138 29.67C131.588 30.01 130.948 30.18 130.218 30.18C129.608 30.18 129.068 30.055 128.598 29.805C128.128 29.555 127.763 29.205 127.503 28.755V33.3H126.243ZM130.068 29.085C130.558 29.085 130.993 28.97 131.373 28.74C131.763 28.5 132.063 28.165 132.273 27.735C132.493 27.305 132.603 26.805 132.603 26.235C132.603 25.655 132.493 25.155 132.273 24.735C132.063 24.305 131.763 23.97 131.373 23.73C130.993 23.49 130.558 23.37 130.068 23.37C129.568 23.37 129.128 23.49 128.748 23.73C128.368 23.97 128.073 24.305 127.863 24.735C127.653 25.155 127.548 25.655 127.548 26.235C127.548 26.805 127.653 27.305 127.863 27.735C128.073 28.165 128.368 28.5 128.748 28.74C129.128 28.97 129.568 29.085 130.068 29.085ZM135.647 30V19.2H136.907V30H135.647ZM142.317 30.18C141.617 30.18 140.992 30.015 140.442 29.685C139.892 29.355 139.457 28.895 139.137 28.305C138.827 27.715 138.672 27.025 138.672 26.235C138.672 25.435 138.827 24.74 139.137 24.15C139.447 23.56 139.877 23.1 140.427 22.77C140.987 22.44 141.627 22.275 142.347 22.275C143.087 22.275 143.717 22.44 144.237 22.77C144.757 23.1 145.152 23.535 145.422 24.075C145.702 24.605 145.842 25.185 145.842 25.815C145.842 25.915 145.842 26.025 145.842 26.145C145.842 26.255 145.837 26.38 145.827 26.52H139.617V25.545H144.597C144.567 24.845 144.337 24.305 143.907 23.925C143.487 23.535 142.957 23.34 142.317 23.34C141.897 23.34 141.502 23.44 141.132 23.64C140.762 23.83 140.462 24.11 140.232 24.48C140.012 24.85 139.902 25.32 139.902 25.89V26.31C139.902 26.93 140.017 27.45 140.247 27.87C140.477 28.28 140.772 28.59 141.132 28.8C141.502 29.01 141.897 29.115 142.317 29.115C142.847 29.115 143.282 29 143.622 28.77C143.972 28.53 144.227 28.205 144.387 27.795H145.632C145.502 28.255 145.287 28.665 144.987 29.025C144.687 29.375 144.312 29.655 143.862 29.865C143.422 30.075 142.907 30.18 142.317 30.18ZM150.234 30C149.784 30 149.394 29.93 149.064 29.79C148.734 29.65 148.479 29.415 148.299 29.085C148.129 28.745 148.044 28.29 148.044 27.72V23.52H146.739V22.455H148.044L148.209 20.64H149.304V22.455H151.509V23.52H149.304V27.72C149.304 28.19 149.399 28.51 149.589 28.68C149.779 28.84 150.114 28.92 150.594 28.92H151.404V30H150.234ZM156.248 30.18C155.548 30.18 154.923 30.015 154.373 29.685C153.823 29.355 153.388 28.895 153.068 28.305C152.758 27.715 152.603 27.025 152.603 26.235C152.603 25.435 152.758 24.74 153.068 24.15C153.378 23.56 153.808 23.1 154.358 22.77C154.918 22.44 155.558 22.275 156.278 22.275C157.018 22.275 157.648 22.44 158.168 22.77C158.688 23.1 159.083 23.535 159.353 24.075C159.633 24.605 159.773 25.185 159.773 25.815C159.773 25.915 159.773 26.025 159.773 26.145C159.773 26.255 159.768 26.38 159.758 26.52H153.548V25.545H158.528C158.498 24.845 158.268 24.305 157.838 23.925C157.418 23.535 156.888 23.34 156.248 23.34C155.828 23.34 155.433 23.44 155.063 23.64C154.693 23.83 154.393 24.11 154.163 24.48C153.943 24.85 153.833 25.32 153.833 25.89V26.31C153.833 26.93 153.948 27.45 154.178 27.87C154.408 28.28 154.703 28.59 155.063 28.8C155.433 29.01 155.828 29.115 156.248 29.115C156.778 29.115 157.213 29 157.553 28.77C157.903 28.53 158.158 28.205 158.318 27.795H159.563C159.433 28.255 159.218 28.665 158.918 29.025C158.618 29.375 158.243 29.655 157.793 29.865C157.353 30.075 156.838 30.18 156.248 30.18ZM164.803 30.18C164.073 30.18 163.428 30.01 162.868 29.67C162.318 29.32 161.888 28.85 161.578 28.26C161.278 27.66 161.128 26.98 161.128 26.22C161.128 25.45 161.278 24.77 161.578 24.18C161.888 23.59 162.318 23.125 162.868 22.785C163.428 22.445 164.078 22.275 164.818 22.275C165.428 22.275 165.968 22.4 166.438 22.65C166.908 22.9 167.268 23.25 167.518 23.7V19.2H168.778V30H167.638L167.518 28.77C167.358 29.01 167.153 29.24 166.903 29.46C166.653 29.67 166.353 29.845 166.003 29.985C165.663 30.115 165.263 30.18 164.803 30.18ZM164.938 29.085C165.438 29.085 165.878 28.97 166.258 28.74C166.638 28.5 166.933 28.165 167.143 27.735C167.363 27.305 167.473 26.805 167.473 26.235C167.473 25.655 167.363 25.155 167.143 24.735C166.933 24.305 166.638 23.97 166.258 23.73C165.878 23.49 165.438 23.37 164.938 23.37C164.458 23.37 164.023 23.49 163.633 23.73C163.253 23.97 162.953 24.305 162.733 24.735C162.523 25.155 162.418 25.655 162.418 26.235C162.418 26.805 162.523 27.305 162.733 27.735C162.953 28.165 163.253 28.5 163.633 28.74C164.023 28.97 164.458 29.085 164.938 29.085Z" fill="white"/>
</svg>
