<svg width="100" height="100" viewBox="0 0 100 100" fill="none" xmlns="http://www.w3.org/2000/svg">
<path fill-rule="evenodd" clip-rule="evenodd" d="M48.4867 1.58246C50.0735 0.691833 52.0271 0.691833 53.6117 1.58246C61.4521 5.98428 85.0458 19.2343 92.8888 23.6361C94.4755 24.5244 95.4524 26.17 95.4524 27.9515C95.4524 36.7551 95.4524 63.2528 95.4524 72.0564C95.4524 73.8377 94.4755 75.4832 92.8888 76.3741C85.0482 80.776 61.4544 94.026 53.6117 98.4278C52.0248 99.3184 50.0711 99.3184 48.4867 98.4278C40.6461 94.026 17.0524 80.776 9.20965 76.3741C7.62528 75.4832 6.64819 73.84 6.64819 72.0588C6.64819 63.2549 6.64819 36.7575 6.64819 27.9538C6.64819 26.1723 7.62528 24.5267 9.212 23.6361C17.05 19.2343 40.6485 5.98428 48.4867 1.58246Z" fill="#283593"/>
<path fill-rule="evenodd" clip-rule="evenodd" d="M7.35887 74.3264C6.73726 73.4942 6.64819 72.7041 6.64819 71.6405C6.64819 62.8882 6.64819 36.5426 6.64819 27.7879C6.64819 26.016 7.62293 24.3796 9.20496 23.496C17.0175 19.1199 40.5318 5.94703 48.344 1.56864C49.9263 0.682703 52.0693 0.701192 53.6513 1.58739C61.4638 5.96343 84.8987 19.0241 92.7112 23.4001C93.3422 23.7556 93.8235 24.1832 94.2534 24.7468L7.35887 74.3264Z" fill="#5C6BC0"/>
<path fill-rule="evenodd" clip-rule="evenodd" d="M51.0502 17.2778C69.1077 17.2778 83.7676 31.9421 83.7676 50.0054C83.7676 68.0684 69.1077 82.7327 51.0502 82.7327C32.9926 82.7327 18.333 68.0684 18.333 50.0054C18.333 31.9421 32.9926 17.2778 51.0502 17.2778ZM51.0502 33.6416C60.0778 33.6416 67.4088 40.9726 67.4088 50.0054C67.4088 59.0359 60.0778 66.3689 51.0502 66.3689C42.0226 66.3689 34.6916 59.0359 34.6916 50.0054C34.6916 40.9726 42.0202 33.6416 51.0502 33.6416Z" fill="white"/>
<path fill-rule="evenodd" clip-rule="evenodd" d="M94.2487 24.7692C95.4547 25.8984 95.4313 27.6002 95.4313 28.9398C95.4313 37.8111 95.3565 63.0442 95.4524 71.9156C95.4617 72.8413 95.1555 73.8161 94.6974 74.5502L50.0992 50.0046L94.2487 24.7692Z" fill="#3949AB"/>
<path fill-rule="evenodd" clip-rule="evenodd" d="M67.4088 42.9919H72.0828V57.018H67.4088V42.9919ZM83.7677 42.9919H88.4414V57.018H83.7677V42.9919Z" fill="white"/>
<path fill-rule="evenodd" clip-rule="evenodd" d="M62.7351 47.6673H76.7567V52.3426H62.7351V47.6673ZM79.0937 47.6673H93.1153V52.3426H79.0937V47.6673Z" fill="white"/>
</svg>
