<svg width="1280" height="832" viewBox="0 0 1280 832" fill="none" xmlns="http://www.w3.org/2000/svg">
<rect width="1280" height="832" fill="#1E1E1E"/>
<g clip-path="url(#clip0_0_1)">
<rect width="1280" height="832" fill="#202733"/>
<path d="M0 0H1275C1277.76 0 1280 2.23858 1280 5V423C1280 425.761 1277.76 428 1275 428H0V0Z" fill="url(#paint0_radial_0_1)"/>
<rect y="407" width="62.5979" height="337" fill="#242E3A"/>
<rect x="156.495" y="484" width="62.5979" height="337" fill="#242E3A"/>
<rect x="281.691" y="484" width="62.5979" height="337" fill="#242E3A"/>
<rect x="344.288" y="461" width="62.5979" height="337" fill="#242E3A"/>
<rect x="517.737" y="484" width="127.804" height="337" fill="#242E3A"/>
<rect x="847.68" y="495" width="127.804" height="337" fill="#242E3A"/>
<rect x="947" y="425" width="127.804" height="337" fill="#242E3A"/>
<rect x="1069" y="470" width="127.804" height="337" fill="#242E3A"/>
<rect x="1175" y="391" width="105" height="337" fill="#242E3A"/>
<rect x="62.5979" y="425" width="62.5979" height="337" fill="#242E3A"/>
<rect y="484" width="87.3762" height="337" fill="#242E3A"/>
<rect x="125.196" y="407" width="62.5979" height="337" fill="#242E3A"/>
<rect x="187.794" y="377" width="62.5979" height="337" fill="#242E3A"/>
<rect x="250.392" y="360" width="62.5979" height="337" fill="#242E3A"/>
<rect x="312.989" y="407" width="633.804" height="337" fill="#242E3A"/>
<rect y="470" width="98.849" height="319" rx="3" fill="#2B3443"/>
<rect x="98.849" y="439" width="98.849" height="323" rx="3" fill="#2B3443"/>
<rect x="197.698" y="455" width="98.849" height="307" rx="3" fill="#2B3443"/>
<rect x="296.547" y="392" width="98.849" height="385" rx="3" fill="#2B3443"/>
<rect x="395.396" y="442" width="98.849" height="379" rx="3" fill="#2B3443"/>
<rect x="494.245" y="412" width="98.849" height="350" rx="3" fill="#2B3443"/>
<rect x="593.094" y="442" width="98.849" height="302" rx="3" fill="#2B3443"/>
<rect x="691.943" y="363" width="115.757" height="435" rx="3" fill="#2B3443"/>
<rect x="807.701" y="391" width="100.15" height="337" rx="3" fill="#2B3443"/>
<rect x="907.85" y="455" width="100.15" height="337" rx="3" fill="#2B3443"/>
<rect x="1008" y="416" width="100.15" height="337" rx="3" fill="#2B3443"/>
<rect x="1108" y="442" width="100.15" height="337" rx="3" fill="#2B3443"/>
<rect x="1208" y="412" width="72" height="337" rx="3" fill="#2B3443"/>
</g>
<defs>
<radialGradient id="paint0_radial_0_1" cx="0" cy="0" r="1" gradientUnits="userSpaceOnUse" gradientTransform="translate(640 214) rotate(90) scale(214 528.496)">
<stop stop-color="#354458"/>
<stop offset="1" stop-color="#202733"/>
</radialGradient>
<clipPath id="clip0_0_1">
<rect width="1280" height="832" fill="white"/>
</clipPath>
</defs>
</svg>
