<svg width="32" height="24" viewBox="0 0 32 24" fill="none" xmlns="http://www.w3.org/2000/svg">
<path d="M5.24127 6L13.1851 10.6123L13.1878 10.614C14.0699 11.1113 14.5112 11.3601 14.9945 11.4562C15.4217 11.5412 15.8708 11.5412 16.298 11.4562C16.7818 11.36 17.2244 11.1105 18.108 10.6123C18.108 10.6123 23.2033 7.60594 26.0516 6M3.94063 15.8002V8.2002C3.94063 7.08009 3.94063 6.51962 4.22415 6.0918C4.47355 5.71547 4.8712 5.40973 5.36067 5.21799C5.91712 5 6.64609 5 8.10295 5H23.1904C24.6473 5 25.3747 5 25.9312 5.21799C26.4206 5.40973 26.8196 5.71547 27.069 6.0918C27.3522 6.5192 27.3522 7.07899 27.3522 8.19691V15.8036C27.3522 16.9215 27.3522 17.4805 27.069 17.9079C26.8196 18.2842 26.4206 18.5905 25.9312 18.7822C25.3753 19 24.6482 19 23.1942 19H8.09867C6.64466 19 5.91657 19 5.36067 18.7822C4.8712 18.5905 4.47355 18.2842 4.22415 17.9079C3.94063 17.4801 3.94063 16.9203 3.94063 15.8002Z" stroke="#30ADA3" stroke-width="2" stroke-linecap="round" stroke-linejoin="round"/>
</svg>
