<svg width="32" height="24" viewBox="0 0 32 24" fill="none" xmlns="http://www.w3.org/2000/svg">
<path fill-rule="evenodd" clip-rule="evenodd" d="M15.9729 0.75C7.70893 0.75 1.01549 5.89625 1.01549 12.25C1.01549 17.3387 5.29705 21.6369 11.2426 23.1606C11.9905 23.2612 12.2709 22.9162 12.2709 22.6144C12.2709 22.3412 12.2523 21.4356 12.2523 20.4725C8.4942 21.0044 7.52197 19.7681 7.22282 19.1212C7.05455 18.7906 6.32537 17.77 5.68968 17.4969C5.16617 17.2812 4.4183 16.7494 5.67098 16.735C6.84888 16.7206 7.69024 17.5687 7.97069 17.9137C9.31686 19.6531 11.467 19.1644 12.327 18.8625C12.4579 18.115 12.8505 17.6119 13.2806 17.3244C9.95255 17.0369 6.47495 16.045 6.47495 11.6462C6.47495 10.3956 7.05455 9.36062 8.00808 8.55562C7.85851 8.26812 7.335 7.08937 8.15766 5.50812C8.15766 5.50812 9.41034 5.20625 12.2709 6.68687C13.4675 6.42812 14.7389 6.29875 16.0103 6.29875C17.2817 6.29875 18.5531 6.42812 19.7497 6.68687C22.6103 5.19187 23.8629 5.50812 23.8629 5.50812C24.6856 7.08937 24.1621 8.26812 24.0125 8.55562C24.9661 9.36062 25.5457 10.3812 25.5457 11.6462C25.5457 16.0594 22.0494 17.0369 18.7213 17.3244C19.2635 17.6837 19.731 18.3737 19.731 19.4519C19.731 20.99 19.7123 22.2262 19.7123 22.6144C19.7123 22.9162 19.9927 23.2756 20.7406 23.1606C26.6488 21.6369 30.9303 17.3244 30.9303 12.25C30.9303 5.89625 24.2369 0.75 15.9729 0.75Z" fill="#30ADA3"/>
</svg>
