<svg width="32" height="24" viewBox="0 0 32 24" fill="none" xmlns="http://www.w3.org/2000/svg">
<g clip-path="url(#clip0_7_193)">
<path d="M29.5964 0H2.99617C1.72194 0 0.691589 0.773438 0.691589 1.72969V22.2656C0.691589 23.2219 1.72194 24 2.99617 24H29.5964C30.8706 24 31.9071 23.2219 31.9071 22.2703V1.72969C31.9071 0.773438 30.8706 0 29.5964 0ZM9.95259 20.4516H5.31904V8.99531H9.95259V20.4516ZM7.63582 7.43438C6.1482 7.43438 4.94714 6.51094 4.94714 5.37187C4.94714 4.23281 6.1482 3.30937 7.63582 3.30937C9.11733 3.30937 10.3184 4.23281 10.3184 5.37187C10.3184 6.50625 9.11733 7.43438 7.63582 7.43438ZM27.2918 20.4516H22.6644V14.8828C22.6644 13.5562 22.6339 11.8453 20.2561 11.8453C17.8479 11.8453 17.4821 13.2937 17.4821 14.7891V20.4516H12.8608V8.99531H17.2992V10.5609H17.3602C17.9759 9.66094 19.4879 8.70938 21.7377 8.70938C26.4261 8.70938 27.2918 11.0813 27.2918 14.1656V20.4516Z" fill="#30ADA3"/>
</g>
<defs>
<clipPath id="clip0_7_193">
<rect width="31.2155" height="24" fill="white" transform="translate(0.691589)"/>
</clipPath>
</defs>
</svg>
